<svg width="1134" height="660" viewBox="0 0 1134 660" fill="none" xmlns="http://www.w3.org/2000/svg">
<path d="M490.772 425H485.133V394.3H490.772V413.659L499.119 403.077H505.559L498.278 412.224L505.559 425H499.119L494.669 417.022L490.772 422.19V425Z" fill="white" fill-opacity="0.2"/>
<path d="M363.91 527H358.045V506C358.045 505.59 357.963 505.207 357.799 504.852C357.648 504.496 357.437 504.188 357.163 503.929C356.903 503.655 356.596 503.443 356.24 503.293C355.885 503.143 355.502 503.067 355.092 503.067C354.682 503.067 354.299 503.143 353.943 503.293C353.588 503.443 353.273 503.655 353 503.929C352.74 504.188 352.535 504.496 352.385 504.852C352.234 505.207 352.159 505.59 352.159 506V527H346.273V506C346.273 505.59 346.198 505.207 346.048 504.852C345.897 504.496 345.686 504.188 345.412 503.929C345.152 503.655 344.845 503.443 344.489 503.293C344.134 503.143 343.751 503.067 343.341 503.067C342.931 503.067 342.548 503.143 342.192 503.293C341.837 503.443 341.522 503.655 341.249 503.929C340.989 504.188 340.784 504.496 340.634 504.852C340.483 505.207 340.408 505.59 340.408 506V527H334.522V506C334.522 504.783 334.748 503.642 335.199 502.575C335.664 501.495 336.293 500.559 337.086 499.766C337.893 498.959 338.829 498.33 339.896 497.879C340.976 497.414 342.124 497.182 343.341 497.182C344.435 497.182 345.487 497.38 346.499 497.776C347.511 498.159 348.42 498.72 349.227 499.458C350.033 498.72 350.936 498.159 351.934 497.776C352.945 497.38 353.998 497.182 355.092 497.182C356.309 497.182 357.45 497.414 358.517 497.879C359.597 498.33 360.533 498.959 361.326 499.766C362.133 500.559 362.762 501.495 363.213 502.575C363.678 503.642 363.91 504.783 363.91 506V527Z" fill="white" fill-opacity="0.2"/>
<path d="M663.041 499.296C663.041 500.649 662.863 501.955 662.508 503.213C662.166 504.457 661.674 505.626 661.031 506.72C660.389 507.8 659.623 508.791 658.734 509.693C657.846 510.582 656.854 511.348 655.761 511.99C654.667 512.633 653.491 513.132 652.233 513.487C650.989 513.829 649.69 514 648.337 514H639.478V484.592H648.337C649.69 484.592 650.989 484.77 652.233 485.125C653.491 485.467 654.667 485.959 655.761 486.602C656.854 487.244 657.846 488.017 658.734 488.919C659.623 489.808 660.389 490.799 661.031 491.893C661.674 492.973 662.166 494.142 662.508 495.399C662.863 496.644 663.041 497.942 663.041 499.296ZM657.155 499.296C657.155 498.079 656.923 496.938 656.458 495.871C656.007 494.805 655.378 493.875 654.571 493.082C653.778 492.275 652.842 491.64 651.762 491.175C650.695 490.71 649.554 490.478 648.337 490.478H645.404V508.114H648.337C649.554 508.114 650.695 507.889 651.762 507.438C652.842 506.973 653.778 506.344 654.571 505.551C655.378 504.744 656.007 503.808 656.458 502.741C656.923 501.661 657.155 500.513 657.155 499.296Z" fill="white" fill-opacity="0.2"/>
<path d="M849.907 73.1816C849.907 74.3984 849.674 75.54 849.209 76.6064C848.745 77.6729 848.109 78.6094 847.302 79.416C846.509 80.209 845.58 80.8379 844.513 81.3027C843.447 81.7676 842.305 82 841.088 82H826.384V52.5918H841.088C842.305 52.5918 843.447 52.8242 844.513 53.2891C845.58 53.7539 846.509 54.3896 847.302 55.1963C848.109 55.9893 848.745 56.9189 849.209 57.9854C849.674 59.0518 849.907 60.1934 849.907 61.4102C849.907 61.957 849.832 62.5176 849.681 63.0918C849.531 63.666 849.319 64.2197 849.045 64.7529C848.772 65.2861 848.444 65.7715 848.061 66.209C847.678 66.6465 847.254 67.0088 846.79 67.2959C847.268 67.5557 847.699 67.9111 848.082 68.3623C848.464 68.7998 848.792 69.2852 849.066 69.8184C849.339 70.3516 849.544 70.9121 849.681 71.5C849.832 72.0742 849.907 72.6348 849.907 73.1816ZM832.27 76.1143H841.088C841.499 76.1143 841.881 76.0391 842.237 75.8887C842.592 75.7383 842.9 75.5332 843.16 75.2734C843.433 75 843.645 74.6855 843.795 74.3301C843.946 73.9746 844.021 73.5918 844.021 73.1816C844.021 72.7715 843.946 72.3887 843.795 72.0332C843.645 71.6777 843.433 71.3701 843.16 71.1104C842.9 70.8369 842.592 70.625 842.237 70.4746C841.881 70.3242 841.499 70.249 841.088 70.249H832.27V76.1143ZM832.27 64.3633H841.088C841.499 64.3633 841.881 64.2881 842.237 64.1377C842.592 63.9873 842.9 63.7822 843.16 63.5225C843.433 63.249 843.645 62.9346 843.795 62.5791C843.946 62.21 844.021 61.8203 844.021 61.4102C844.021 61 843.946 60.6172 843.795 60.2617C843.645 59.9062 843.433 59.5986 843.16 59.3389C842.9 59.0654 842.592 58.8535 842.237 58.7031C841.881 58.5527 841.499 58.4775 841.088 58.4775H832.27V64.3633Z" fill="white" fill-opacity="0.2"/>
<path d="M346.275 89H333.361L323.119 71.8184L312.84 89H300L316.328 62.3926L300 35.7852H312.84L323.119 52.9668L333.361 35.7852H346.275L329.947 62.3926L346.275 89Z" fill="white" fill-opacity="0.1"/>
<path d="M41.8594 280.264C41.8594 282.861 41.4017 285.199 40.4863 287.277C39.571 289.355 38.3464 291.112 36.8125 292.547C35.2786 293.982 33.4974 295.083 31.4688 295.85C29.4648 296.617 27.362 297 25.1602 297H3.71094V286.35H25.1602C25.8776 286.35 26.5951 286.238 27.3125 286.016C28.0547 285.793 28.7103 285.434 29.2793 284.939C29.873 284.445 30.3431 283.814 30.6895 283.047C31.0605 282.28 31.2461 281.352 31.2461 280.264C31.2461 279.274 31.0605 278.408 30.6895 277.666C30.3431 276.899 29.873 276.268 29.2793 275.773C28.7103 275.254 28.0547 274.87 27.3125 274.623C26.5951 274.351 25.8776 274.215 25.1602 274.215H3.71094L6.82812 243.785H39.6699V254.436H16.4023L15.4375 263.564H25.1602C27.362 263.564 29.4648 263.948 31.4688 264.715C33.4974 265.482 35.2786 266.595 36.8125 268.055C38.3464 269.49 39.571 271.246 40.4863 273.324C41.4017 275.378 41.8594 277.691 41.8594 280.264Z" fill="white" fill-opacity="0.1"/>
<path d="M862.473 311H856.874V294.614H854.147V289.036H856.874V287.99C856.874 286.637 857.127 285.365 857.633 284.176C858.153 282.986 858.857 281.954 859.745 281.079C860.648 280.19 861.694 279.493 862.883 278.987C864.073 278.468 865.344 278.208 866.698 278.208H870.902V283.786H866.698C866.096 283.786 865.535 283.896 865.016 284.114C864.51 284.319 864.066 284.613 863.683 284.996C863.314 285.365 863.02 285.81 862.801 286.329C862.582 286.835 862.473 287.389 862.473 287.99V289.036H869.343V294.614H862.473V311Z" fill="white" fill-opacity="0.2"/>
<path d="M59.3333 32.5918C59.3333 33.918 59.0325 35.1416 58.4309 36.2627C57.8293 37.3838 57.0022 38.3545 55.9495 39.1748C54.9104 39.9814 53.6936 40.6104 52.2991 41.0615C50.9045 41.5264 49.4143 41.7588 47.8284 41.7588C46.2424 41.7588 44.7522 41.5264 43.3577 41.0615C41.9631 40.6104 40.7395 39.9814 39.6868 39.1748C38.6477 38.3545 37.8274 37.3838 37.2258 36.2627C36.6243 35.1416 36.3235 33.918 36.3235 32.5918C36.3235 31.8262 36.426 31.0811 36.6311 30.3564C36.8362 29.6182 37.1301 28.9277 37.5129 28.2852C37.9094 27.6426 38.3811 27.0547 38.928 26.5215C39.4749 25.9746 40.0901 25.5098 40.7737 25.127C40.3499 24.7578 39.967 24.334 39.6252 23.8555C39.2971 23.377 39.01 22.8711 38.7639 22.3379C38.5315 21.8047 38.3538 21.2578 38.2307 20.6973C38.1077 20.123 38.0461 19.5557 38.0461 18.9951C38.0461 17.8467 38.2991 16.7734 38.8049 15.7754C39.3245 14.7637 40.0286 13.8818 40.9172 13.1299C41.8059 12.3643 42.845 11.7627 44.0344 11.3252C45.2239 10.8877 46.4885 10.6689 47.8284 10.6689C49.1819 10.6689 50.4534 10.8877 51.6428 11.3252C52.8323 11.7627 53.8713 12.3643 54.76 13.1299C55.6624 13.8818 56.3665 14.7637 56.8723 15.7754C57.3918 16.7734 57.6516 17.8467 57.6516 18.9951C57.6516 19.5557 57.5833 20.123 57.4465 20.6973C57.3235 21.2578 57.1458 21.8115 56.9133 22.3584C56.6809 22.8916 56.3938 23.3975 56.052 23.876C55.7239 24.3545 55.3479 24.7852 54.9241 25.168C55.594 25.5508 56.2024 26.0088 56.7493 26.542C57.2961 27.0752 57.761 27.6631 58.1438 28.3057C58.5266 28.9482 58.8206 29.6318 59.0256 30.3564C59.2307 31.0811 59.3333 31.8262 59.3333 32.5918ZM51.8889 19.6309C51.8889 19.1523 51.7795 18.708 51.5608 18.2979C51.3557 17.874 51.0686 17.5049 50.6995 17.1904C50.344 16.876 49.9202 16.6299 49.428 16.4521C48.9358 16.2744 48.4163 16.1855 47.8694 16.1855C47.3088 16.1855 46.7825 16.2744 46.2903 16.4521C45.7981 16.6299 45.3674 16.876 44.9983 17.1904C44.6428 17.5049 44.3557 17.874 44.137 18.2979C43.9319 18.708 43.8293 19.1523 43.8293 19.6309C43.8293 20.1094 43.9319 20.5537 44.137 20.9639C44.3557 21.374 44.6428 21.7295 44.9983 22.0303C45.3674 22.3311 45.7981 22.5703 46.2903 22.748C46.7825 22.9258 47.3088 23.0146 47.8694 23.0146C48.4163 23.0146 48.9358 22.9258 49.428 22.748C49.9202 22.5703 50.344 22.3311 50.6995 22.0303C51.0686 21.7295 51.3557 21.374 51.5608 20.9639C51.7795 20.5537 51.8889 20.1094 51.8889 19.6309ZM53.4885 32.4277C53.4885 31.7715 53.3381 31.1631 53.0374 30.6025C52.7502 30.0283 52.3469 29.5293 51.8274 29.1055C51.3215 28.6816 50.72 28.3467 50.0227 28.1006C49.3391 27.8545 48.6077 27.7314 47.8284 27.7314C47.0491 27.7314 46.3176 27.8545 45.634 28.1006C44.9504 28.3467 44.3489 28.6816 43.8293 29.1055C43.3235 29.5293 42.9202 30.0283 42.6194 30.6025C42.3323 31.1631 42.1887 31.7715 42.1887 32.4277C42.1887 33.084 42.3323 33.6855 42.6194 34.2324C42.9202 34.7793 43.3235 35.251 43.8293 35.6475C44.3489 36.0439 44.9504 36.3584 45.634 36.5908C46.3176 36.8096 47.0491 36.9189 47.8284 36.9189C48.6077 36.9189 49.3391 36.8096 50.0227 36.5908C50.72 36.3584 51.3215 36.0439 51.8274 35.6475C52.3469 35.251 52.7502 34.7793 53.0374 34.2324C53.3381 33.6855 53.4885 33.084 53.4885 32.4277Z" fill="white" fill-opacity="0.2"/>
<path d="M93.5645 540.296C93.5645 537.028 93.0176 534.602 91.9238 533.016C90.8438 531.43 89.333 530.637 87.3916 530.637C85.4639 530.637 83.9668 531.423 82.9004 532.995C81.834 534.567 81.3008 537.001 81.3008 540.296C81.3008 543.563 81.834 545.99 82.9004 547.576C83.9668 549.162 85.4639 549.955 87.3916 549.955C88.3623 549.955 89.2305 549.764 89.9961 549.381C90.7617 548.984 91.4043 548.39 91.9238 547.597C92.457 546.804 92.8604 545.806 93.1338 544.603C93.4209 543.386 93.5645 541.95 93.5645 540.296ZM99.1631 540.296C99.1631 543.085 98.8555 545.443 98.2402 547.371C97.625 549.299 96.7842 550.857 95.7178 552.047C94.6514 553.236 93.4004 554.098 91.9648 554.631C90.543 555.15 89.0186 555.41 87.3916 555.41C85.7646 555.41 84.2334 555.144 82.7979 554.61C81.376 554.063 80.1318 553.195 79.0654 552.006C78.0127 550.803 77.1787 549.244 76.5635 547.33C75.9482 545.402 75.6406 543.058 75.6406 540.296C75.6406 537.507 75.9482 535.155 76.5635 533.241C77.1787 531.313 78.0127 529.755 79.0654 528.565C80.1318 527.376 81.376 526.515 82.7979 525.981C84.2334 525.448 85.7646 525.182 87.3916 525.182C89.0186 525.182 90.543 525.455 91.9648 526.002C93.4004 526.535 94.6514 527.403 95.7178 528.606C96.7842 529.81 97.625 531.368 98.2402 533.282C98.8555 535.196 99.1631 537.534 99.1631 540.296Z" fill="white" fill-opacity="0.2"/>
</svg>
