<svg width="66" height="55" viewBox="0 0 66 55" fill="none" xmlns="http://www.w3.org/2000/svg">
<path d="M63.0361 29.6289L57.9003 27.4561H44.0732C41.9003 27.4561 40.1226 25.6783 40.1226 23.5055V8.69067H33.209V48.1968H60.6658C61.4559 48.1968 62.246 47.9006 62.7398 47.308L63.925 46.1228C64.5176 45.5302 64.8139 44.8388 64.8139 44.0487V32.2956C64.8139 31.1104 64.1226 30.024 63.0361 29.6289Z" fill="white"/>
<path d="M57.1102 29.6289L51.9744 27.4561H44.0732C41.9003 27.4561 40.1226 25.6783 40.1226 23.5055V8.69067H33.209V48.1968H54.7398C55.53 48.1968 56.3201 47.9006 56.8139 47.308L57.9991 46.1228C58.5917 45.5302 58.888 44.8388 58.888 44.0487V32.2956C58.888 31.1104 58.1966 30.024 57.1102 29.6289Z" fill="white"/>
<path d="M54.9375 35.3574L57.9005 41.2833H64.814V35.3574H54.9375Z" fill="white"/>
<path d="M54.9375 35.3574L56.9128 39.308H60.8634C61.456 39.308 61.8511 38.913 61.8511 38.3204V35.3574H54.9375Z" fill="white"/>
<path d="M64.8138 41.9748H57.9003C57.604 41.9748 57.4064 41.7773 57.2089 41.5797L54.2459 35.6538C54.1472 35.4563 54.1472 35.16 54.2459 34.9624C54.3447 34.7649 54.641 34.5674 54.8385 34.5674H64.7151C65.1101 34.5674 65.5052 34.8637 65.5052 35.3575V41.2834C65.604 41.6785 65.3077 41.9748 64.8138 41.9748ZM58.3941 40.4933H64.1225V36.0489H56.2213L58.3941 40.4933Z" fill="#2B2929"/>
<path d="M44.0737 27.4561H57.9008L50.2959 11.9499C49.3082 9.97462 47.2342 8.69067 44.9626 8.69067H40.123V23.5055C40.123 25.6783 41.9008 27.4561 44.0737 27.4561Z" fill="white"/>
<path d="M50.2959 11.9499C49.3082 9.97462 47.2342 8.69067 44.9626 8.69067H40.123C42.2959 8.69067 44.37 9.97462 45.3576 11.9499L52.9626 27.4561H57.9008L50.2959 11.9499Z" fill="white"/>
<path d="M57.8999 28.1477H44.0728C41.5049 28.1477 39.332 26.0736 39.332 23.5057V8.69088C39.332 8.29582 39.6283 7.90076 40.1222 7.90076H44.9617C47.5296 7.90076 49.8012 9.28347 50.9864 11.6538L58.5913 27.16C58.6901 27.3575 58.6901 27.6538 58.5913 27.8514C58.3938 28.0489 58.1962 28.1477 57.8999 28.1477ZM40.9123 9.38224V23.5057C40.9123 25.2835 42.3938 26.6662 44.1715 26.6662H56.8135L49.7024 12.2464C48.8135 10.4687 47.0357 9.38224 45.0604 9.38224H40.9123Z" fill="#2B2929"/>
<path d="M3.58078 0.789429C2.49436 0.789429 1.60547 1.67832 1.60547 2.76474V46.2215C1.60547 47.3079 2.49436 48.1968 3.58078 48.1968H33.2104V2.76474C33.2104 1.67832 32.3215 0.789429 31.2351 0.789429H3.58078Z" fill="white"/>
<path d="M3.58078 0.789429C2.49436 0.789429 1.60547 1.67832 1.60547 2.76474V43.2586H25.3092C26.3956 43.2586 27.2845 42.3697 27.2845 41.2833V0.789429H3.58078Z" fill="white"/>
<path d="M33.2095 48.8886H3.57989C2.0984 48.8886 0.814453 47.7035 0.814453 46.1232V2.66642C0.913219 1.18494 2.0984 -0.000244141 3.57989 -0.000244141H31.2342C32.7157 -0.000244141 33.9996 1.18494 33.9996 2.76519V48.1973C33.9996 48.5923 33.7033 48.8886 33.2095 48.8886ZM3.57989 1.48124C2.88853 1.48124 2.29593 2.07383 2.29593 2.76519V46.222C2.29593 46.9133 2.88853 47.5059 3.57989 47.5059H32.5182V2.76519C32.5182 2.07383 31.9256 1.48124 31.2342 1.48124H3.57989Z" fill="#2B2929"/>
<path d="M60.6668 48.8883H33.21C32.815 48.8883 32.4199 48.592 32.4199 48.0982V8.592C32.4199 8.19694 32.7162 7.80188 33.21 7.80188H40.1236C40.5187 7.80188 40.9137 8.09818 40.9137 8.592V23.4068C40.9137 25.1846 42.3952 26.5673 44.173 26.5673H58.0002C58.0989 26.5673 58.1977 26.5673 58.2965 26.6661L63.4323 28.8389C64.815 29.4315 65.7039 30.7155 65.7039 32.1969V43.8513C65.7039 44.8389 65.3088 45.7278 64.6175 46.5179L63.4323 47.7031C62.5434 48.4932 61.6545 48.8883 60.6668 48.8883ZM34.0002 47.4068H60.6668C61.2594 47.4068 61.852 47.2093 62.2471 46.7155L63.4323 45.5303C63.8273 45.1352 64.1236 44.5426 64.1236 43.95V32.2957C64.1236 31.4068 63.6298 30.6167 62.7409 30.2216L57.8026 28.0488H44.0742C41.5063 28.0488 39.3335 25.9747 39.3335 23.4068V9.38213H33.9014V47.4068H34.0002Z" fill="#2B2929"/>
<path d="M17.4064 54.1228C20.6792 54.1228 23.3323 51.4697 23.3323 48.1969C23.3323 44.9241 20.6792 42.271 17.4064 42.271C14.1336 42.271 11.4805 44.9241 11.4805 48.1969C11.4805 51.4697 14.1336 54.1228 17.4064 54.1228Z" fill="white"/>
<path d="M20.5675 43.0613C21.1601 43.9502 21.4564 45.0366 21.4564 46.123C21.4564 49.3823 18.7897 52.0489 15.5305 52.0489C14.4441 52.0489 13.3576 51.7526 12.4688 51.16C13.5552 52.8391 15.3329 54.0242 17.5058 54.0242C20.765 54.0242 23.4317 51.3576 23.4317 48.0983C23.3329 46.0242 22.2465 44.1477 20.5675 43.0613Z" fill="white"/>
<path d="M17.4075 54.8142C13.7531 54.8142 10.6914 51.8512 10.6914 48.0981C10.6914 44.4438 13.6544 41.3821 17.4075 41.3821C21.1605 41.3821 24.1235 44.345 24.1235 48.0981C24.1235 51.8512 21.1605 54.8142 17.4075 54.8142ZM17.4075 42.9623C14.5433 42.9623 12.1729 45.3327 12.1729 48.1969C12.1729 51.0611 14.5433 53.4315 17.4075 53.4315C20.2717 53.4315 22.642 51.0611 22.642 48.1969C22.642 45.3327 20.2717 42.9623 17.4075 42.9623Z" fill="#2B2929"/>
<path d="M17.4069 50.1723C18.4979 50.1723 19.3823 49.2879 19.3823 48.197C19.3823 47.1061 18.4979 46.2217 17.4069 46.2217C16.316 46.2217 15.4316 47.1061 15.4316 48.197C15.4316 49.2879 16.316 50.1723 17.4069 50.1723Z" fill="white"/>
<path d="M17.408 50.8636C15.9265 50.8636 14.6426 49.6784 14.6426 48.0982C14.6426 46.6167 15.8278 45.3328 17.408 45.3328C18.9883 45.3328 20.1734 46.5179 20.1734 48.0982C20.1734 49.6784 18.9883 50.8636 17.408 50.8636ZM17.408 46.913C16.7167 46.913 16.1241 47.5056 16.1241 48.197C16.1241 48.8883 16.7167 49.4809 17.408 49.4809C18.0994 49.4809 18.692 48.8883 18.692 48.197C18.692 47.5056 18.0994 46.913 17.408 46.913Z" fill="#2B2929"/>
<path d="M49.0119 54.1228C52.2847 54.1228 54.9378 51.4697 54.9378 48.1969C54.9378 44.9241 52.2847 42.271 49.0119 42.271C45.7391 42.271 43.0859 44.9241 43.0859 48.1969C43.0859 51.4697 45.7391 54.1228 49.0119 54.1228Z" fill="white"/>
<path d="M52.173 43.0613C52.7656 43.9502 53.0619 45.0366 53.0619 46.123C53.0619 49.3823 50.3952 52.0489 47.1359 52.0489C46.0495 52.0489 44.9631 51.7526 44.0742 51.16C45.1606 52.8391 46.9384 54.0242 49.1113 54.0242C52.3705 54.0242 55.0372 51.3576 55.0372 48.0983C54.9384 46.0242 53.852 44.1477 52.173 43.0613Z" fill="white"/>
<path d="M49.0129 54.8142C45.3586 54.8142 42.2969 51.8512 42.2969 48.0981C42.2969 44.4438 45.2598 41.3821 49.0129 41.3821C52.6672 41.3821 55.729 44.345 55.729 48.0981C55.729 51.8512 52.766 54.8142 49.0129 54.8142ZM49.0129 42.9623C46.1487 42.9623 43.7784 45.3327 43.7784 48.1969C43.7784 51.0611 46.1487 53.4315 49.0129 53.4315C51.8771 53.4315 54.2475 51.0611 54.2475 48.1969C54.2475 45.3327 51.8771 42.9623 49.0129 42.9623Z" fill="#2B2929"/>
<path d="M49.0124 50.1723C50.1034 50.1723 50.9877 49.2879 50.9877 48.197C50.9877 47.1061 50.1034 46.2217 49.0124 46.2217C47.9215 46.2217 47.0371 47.1061 47.0371 48.197C47.0371 49.2879 47.9215 50.1723 49.0124 50.1723Z" fill="white"/>
<path d="M49.0115 50.8636C47.53 50.8636 46.2461 49.6784 46.2461 48.0982C46.2461 46.6167 47.4313 45.3328 49.0115 45.3328C50.493 45.3328 51.777 46.5179 51.777 48.0982C51.777 49.6784 50.5918 50.8636 49.0115 50.8636ZM49.0115 46.913C48.3202 46.913 47.7276 47.5056 47.7276 48.197C47.7276 48.8883 48.3202 49.4809 49.0115 49.4809C49.7029 49.4809 50.2955 48.8883 50.2955 48.197C50.2955 47.5056 49.7029 46.913 49.0115 46.913Z" fill="#2B2929"/>
<path d="M45.0611 32.0983H41.1104C40.7154 32.0983 40.3203 31.802 40.3203 31.3082C40.3203 30.9131 40.6166 30.5181 41.1104 30.5181H45.0611C45.4561 30.5181 45.8512 30.8144 45.8512 31.3082C45.8512 31.802 45.5549 32.0983 45.0611 32.0983Z" fill="#2B2929"/>
<path d="M28.2705 26.1723H6.54208C6.14702 26.1723 5.75195 25.876 5.75195 25.3822C5.75195 24.9871 6.04825 24.592 6.54208 24.592H28.2705C28.6655 24.592 29.0606 24.8883 29.0606 25.3822C29.0606 25.876 28.7643 26.1723 28.2705 26.1723Z" fill="#FFBC57"/>
<path d="M28.2705 32.0983H6.54208C6.14702 32.0983 5.75195 31.802 5.75195 31.3082C5.75195 30.9131 6.04825 30.5181 6.54208 30.5181H28.2705C28.6655 30.5181 29.0606 30.8144 29.0606 31.3082C29.0606 31.802 28.7643 32.0983 28.2705 32.0983Z" fill="#FFBC57"/>
<path d="M28.2705 38.0241H6.54208C6.14702 38.0241 5.75195 37.7278 5.75195 37.234C5.75195 36.8389 6.04825 36.4438 6.54208 36.4438H28.2705C28.6655 36.4438 29.0606 36.7401 29.0606 37.234C29.0606 37.7278 28.7643 38.0241 28.2705 38.0241Z" fill="#FFBC57"/>
<path d="M28.2705 20.2463H6.54208C6.14702 20.2463 5.75195 19.95 5.75195 19.4561C5.75195 19.0611 6.04825 18.666 6.54208 18.666H28.2705C28.6655 18.666 29.0606 18.9623 29.0606 19.4561C29.0606 19.95 28.7643 20.2463 28.2705 20.2463Z" fill="#FFBC57"/>
<path d="M28.2705 14.3205H6.54208C6.14702 14.3205 5.75195 14.0242 5.75195 13.5304C5.75195 13.1353 6.04825 12.7402 6.54208 12.7402H28.2705C28.6655 12.7402 29.0606 13.0365 29.0606 13.5304C29.0606 14.0242 28.7643 14.3205 28.2705 14.3205Z" fill="#2B2929"/>
<path d="M28.2705 8.39446H6.54208C6.14702 8.39446 5.75195 8.09816 5.75195 7.60433C5.75195 7.20927 6.04825 6.81421 6.54208 6.81421H28.2705C28.6655 6.81421 29.0606 7.11051 29.0606 7.60433C29.0606 8.09816 28.7643 8.39446 28.2705 8.39446Z" fill="#2B2929"/>
</svg>
