<svg width="258.000000" height="58.000000" viewBox="0 0 258 58" fill="none" xmlns="http://www.w3.org/2000/svg" xmlns:xlink="http://www.w3.org/1999/xlink">
	<desc>
			Created with Pixso.
	</desc>
	<defs>
		<filter id="filter_10_3_dd" x="0.000000" y="0.000000" width="258.000000" height="58.000000" filterUnits="userSpaceOnUse" color-interpolation-filters="sRGB">
			<feFlood flood-opacity="0" result="BackgroundImageFix"/>
			<feColorMatrix in="SourceAlpha" type="matrix" values="0 0 0 0 0 0 0 0 0 0 0 0 0 0 0 0 0 0 127 0" result="hardAlpha"/>
			<feOffset dx="0" dy="4"/>
			<feGaussianBlur stdDeviation="1.33333"/>
			<feComposite in2="hardAlpha" operator="out" k2="-1" k3="1"/>
			<feColorMatrix type="matrix" values="0 0 0 0 0 0 0 0 0 0 0 0 0 0 0 0 0 0 0.25 0"/>
			<feBlend mode="normal" in2="BackgroundImageFix" result="effect_dropShadow_1"/>
			<feBlend mode="normal" in="SourceGraphic" in2="effect_dropShadow_1" result="shape"/>
		</filter>
		<clipPath id="clip10_3">
			<rect width="250.000000" height="50.000000" transform="translate(4.000000 0.000000)" fill="white" fill-opacity="0"/>
		</clipPath>
	</defs>
	<g filter="url(#filter_10_3_dd)">
		<rect width="250.000000" height="50.000000" transform="translate(4.000000 0.000000)" fill="#FFFFFF" fill-opacity="0"/>
		<g clip-path="url(#clip10_3)">
			<path d="M102.52 36.52L98.89 36.52L98.89 34.65L108.03 34.65L108.03 36.52L104.4 36.52L104.4 45.75L102.4 45.75L102.4 36.52L102.52 36.52ZM117.05 45.75L110.41 45.75L110.41 34.65L116.8 34.65L116.8 36.52L112.29 36.52L112.29 39.27L116.3 39.27L116.3 41.13L112.29 41.13L112.29 44L116.93 44L116.93 45.75L117.05 45.75ZM126.7 34.65L128.96 34.65L125.2 40.01L129.08 45.62L126.83 45.62L123.94 41.51L121.06 45.62L118.81 45.62L122.69 40.01L118.93 34.65L121.19 34.65L123.94 38.64L126.7 34.65ZM140.48 45.75L138.48 45.75L138.48 41.01L133.47 41.01L133.47 45.75L131.46 45.75L131.46 34.65L133.47 34.65L133.47 39.14L138.6 39.14L138.6 34.65L140.48 34.65L140.48 45.75ZM143.36 40.26C143.36 38.64 143.86 37.27 144.99 36.15C146.12 35.03 147.5 34.53 149.13 34.53C150.75 34.53 152.13 35.03 153.26 36.15C154.39 37.27 154.89 38.64 154.89 40.26C154.89 41.88 154.39 43.25 153.26 44.37C152.13 45.5 150.75 46 149.13 46C147.5 46 146.12 45.5 144.99 44.37C143.86 43.25 143.36 41.88 143.36 40.26ZM145.37 40.26C145.37 41.38 145.74 42.26 146.37 43C147 43.75 148 44.13 149 44.13C150.13 44.13 151 43.75 151.76 43C152.38 42.26 152.76 41.38 152.76 40.26C152.76 39.14 152.38 38.14 151.63 37.52C150.88 36.77 150 36.4 149 36.4C147.87 36.4 147 36.77 146.37 37.52C145.74 38.14 145.37 39.14 145.37 40.26ZM165.91 45.75L164.03 45.75L164.03 36.52L160.78 36.52L160.53 38.64C160.4 39.89 160.28 41.01 160.03 41.88C159.77 42.75 159.65 43.5 159.4 44C159.15 44.5 158.9 45 158.52 45.25C158.15 45.5 157.89 45.75 157.52 45.75C157.14 45.87 156.77 45.87 156.27 45.75L156.27 43.88C156.52 43.88 156.64 43.88 156.89 43.88C157.02 43.88 157.27 43.63 157.39 43.38C157.64 43.13 157.77 42.75 157.89 42.26C158.27 41.13 158.52 39.39 158.77 36.9L158.9 34.65L165.91 34.65L165.91 45.75ZM168.8 40.26C168.8 38.64 169.3 37.27 170.42 36.15C171.55 35.03 172.93 34.53 174.56 34.53C176.19 34.53 177.56 35.03 178.69 36.15C179.82 37.27 180.32 38.64 180.32 40.26C180.32 41.88 179.82 43.25 178.69 44.37C177.56 45.5 176.19 46 174.56 46C172.93 46 171.55 45.5 170.42 44.37C169.3 43.25 168.8 41.88 168.8 40.26ZM170.92 40.26C170.92 41.38 171.3 42.26 171.93 43C172.55 43.75 173.56 44.13 174.56 44.13C175.69 44.13 176.56 43.75 177.31 43C177.94 42.26 178.32 41.38 178.32 40.26C178.32 39.14 177.94 38.14 177.19 37.52C176.44 36.77 175.56 36.4 174.56 36.4C173.43 36.4 172.55 36.77 171.93 37.52C171.18 38.14 170.92 39.14 170.92 40.26ZM185.21 45.75L183.2 45.75L183.2 34.65L189.47 34.65L189.47 36.52L185.21 36.52L185.21 45.75ZM194.1 45.75L192.1 45.75L192.1 34.65L194.1 34.65L194.1 45.75ZM196.98 32.78C196.98 32.54 197.11 32.29 197.23 32.04C197.48 31.91 197.74 31.79 197.99 31.79C198.24 31.79 198.49 31.91 198.74 32.04C198.99 32.16 198.99 32.41 198.99 32.78C198.99 33.16 198.86 33.41 198.74 33.53C198.61 33.66 198.36 33.78 197.99 33.78C197.74 33.78 197.48 33.66 197.23 33.53C197.11 33.28 196.98 33.03 196.98 32.78ZM200.24 45.75L198.24 45.75L198.24 34.65L200.24 34.65L200.24 45.75ZM199.61 32.78C199.61 32.54 199.74 32.29 199.87 32.04C200.12 31.91 200.37 31.79 200.62 31.79C200.87 31.79 201.12 31.91 201.37 32.04C201.62 32.29 201.62 32.41 201.62 32.78C201.62 33.16 201.49 33.41 201.37 33.53C201.24 33.78 200.99 33.78 200.62 33.78C200.24 33.78 199.99 33.66 199.87 33.53C199.74 33.28 199.61 33.03 199.61 32.78ZM215.9 43.25L216.65 44.75C216.28 45.12 215.78 45.37 215.15 45.62C214.52 45.87 213.77 46 213.14 46C211.39 46 210.01 45.5 209.01 44.37C208.01 43.38 207.38 42.01 207.38 40.26C207.38 38.64 207.88 37.27 208.89 36.15C209.89 35.03 211.27 34.53 213.02 34.53C214.4 34.53 215.53 34.9 216.4 35.65L215.53 37.15C214.77 36.65 213.9 36.4 213.02 36.4C212.02 36.4 211.14 36.77 210.39 37.4C209.76 38.14 209.39 39.02 209.39 40.26C209.39 41.38 209.76 42.38 210.39 43.13C211.14 43.88 212.02 44.25 213.14 44.25C214.27 44.13 215.15 43.88 215.9 43.25ZM228.18 45.75L226.3 45.75L226.3 41.01L221.16 41.01L221.16 45.75L219.16 45.75L219.16 34.65L221.16 34.65L221.16 39.14L226.3 39.14L226.3 34.65L228.18 34.65L228.18 45.75ZM239.08 34.65L241.08 34.65L237.32 43.13C236.95 44 236.45 44.62 236.07 45.12C235.57 45.5 235.07 45.75 234.32 45.75C233.57 45.75 233.19 45.62 232.81 45.25L233.44 43.63C233.69 43.75 233.94 43.88 234.32 43.88C234.82 43.88 235.19 43.63 235.44 43.13L235.57 42.75L230.68 34.65L232.94 34.65L236.57 40.89L239.08 34.65Z" fill="#535353" fill-opacity="1.000000" fill-rule="nonzero"/>
			<path d="M96.64 15.71L107.41 28.8L100.52 28.8L91.88 17.95L91.88 28.8L86.49 28.8L86.49 4.24L91.88 4.24L91.88 14.21L100.15 4.24L106.79 4.24L96.64 15.71ZM206.51 9.35L214.03 9.35L214.03 28.8L219.42 28.8L219.42 9.35L226.93 9.35L226.93 4.24L206.39 4.24L206.39 9.35L206.51 9.35ZM122.95 18.95L130.59 28.8L124.08 28.8L117.69 20.07L115.68 20.07L115.68 28.8L110.3 28.8L110.3 4.24L110.92 4.24C112.05 4.24 113.3 4.24 114.68 4.24C116.06 4.24 117.19 4.24 118.06 4.24C125.58 4.24 127.21 8.48 127.21 12.1C127.21 13.97 126.71 15.59 125.71 16.83C124.83 17.7 123.95 18.45 122.95 18.95ZM116.31 9.35C116.06 9.35 115.93 9.35 115.68 9.35L115.68 14.96L117.69 14.96C118.82 14.96 119.82 14.71 120.57 14.09C121.2 13.59 121.57 12.84 121.57 11.97C121.57 10.73 121.2 9.23 117.81 9.23C117.69 9.23 117.56 9.23 117.31 9.23C117.06 9.35 116.69 9.35 116.31 9.35ZM197.87 4.24L208.27 28.8L202.5 28.8L200.12 22.81L190.98 22.81L188.6 28.8L183.08 28.8L193.36 4.24L197.87 4.24ZM195.49 11.72L192.98 17.7L197.99 17.7L195.49 11.72ZM253.49 16.58C253.49 20.2 252.24 23.31 249.86 25.68C247.48 28.05 244.35 29.29 240.71 29.29C237.08 29.29 233.95 28.17 231.57 25.81C229.19 23.44 227.94 20.45 227.94 16.71C227.94 13.22 229.19 10.1 231.57 7.73C233.95 5.37 237.08 4.12 240.71 4.12C244.35 4.12 247.48 5.24 249.86 7.61C252.24 9.73 253.49 12.84 253.49 16.58ZM245.98 21.94C247.35 20.45 247.98 18.7 247.98 16.46C247.98 14.21 247.35 12.47 245.85 10.97C244.47 9.6 242.72 8.86 240.71 8.86C238.58 8.86 236.96 9.6 235.58 10.97C234.2 12.35 233.57 14.21 233.57 16.46C233.57 18.7 234.2 20.45 235.58 21.82C236.96 23.31 238.58 23.94 240.71 23.94C242.97 24.06 244.6 23.44 245.98 21.94ZM180.08 4.24L173.81 20.45L167.3 4.24L161.54 4.24L171.68 28.8L175.69 28.8L185.59 4.24L180.08 4.24Z" fill="#535353" fill-opacity="1.000000" fill-rule="nonzero"/>
			<path d="M157.1 6.49C155.59 4.99 153.58 4.12 151.45 4.12C149.31 4.12 147.3 4.99 145.79 6.49L145.42 6.86L144.91 6.36C143.41 4.87 141.4 4 139.26 4C137.13 4 135.12 4.87 133.61 6.36C132.1 7.86 131.22 9.86 131.22 11.98C131.22 14.1 132.1 16.09 133.61 17.59L144.54 28.44C144.79 28.69 145.04 28.81 145.42 28.81C145.79 28.81 146.05 28.69 146.3 28.44L157.22 17.59C158.73 16.09 159.61 14.1 159.61 11.98C159.61 9.86 158.73 7.99 157.1 6.49Z" fill="#00B5FF" fill-opacity="1.000000" fill-rule="nonzero"/>
			<mask id="mask10_12" mask-type="alpha" maskUnits="userSpaceOnUse" x="131.229492" y="4.000000" width="28.384521" height="24.818481">
				<path d="M157.1 6.49C155.59 4.99 153.58 4.12 151.45 4.12C149.31 4.12 147.3 4.99 145.79 6.49L145.42 6.86L144.91 6.36C143.41 4.87 141.4 4 139.26 4C137.13 4 135.12 4.87 133.61 6.36C132.1 7.86 131.22 9.86 131.22 11.98C131.22 14.1 132.1 16.09 133.61 17.59L144.54 28.44C144.79 28.69 145.04 28.81 145.42 28.81C145.79 28.81 146.05 28.69 146.3 28.44L157.22 17.59C158.73 16.09 159.61 14.1 159.61 11.98C159.61 9.86 158.73 7.99 157.1 6.49Z" fill="#00B5FF" fill-opacity="1.000000" fill-rule="nonzero"/>
			</mask>
			<g mask="url(#mask10_12)">
				<rect x="130.293457" y="14.322716" width="30.067518" height="15.084416" fill="#FFBC00" fill-opacity="1.000000"/>
			</g>
			<path d="M11.23 18.4L11.23 44.8C11.23 45.52 10.75 46 10.02 46L5.2 46C4.48 46 4 45.52 4 44.8L4 18.4C4 17.68 4.48 17.2 5.2 17.2L10.02 17.2C10.75 17.2 11.23 17.79 11.23 18.4ZM76.79 17.2L71.97 17.2C71.24 17.2 70.76 17.68 70.76 18.4L70.76 44.8C70.76 45.52 71.24 46 71.97 46L76.79 46C77.51 46 78 45.52 78 44.8L78 18.4C78 17.79 77.51 17.2 76.79 17.2Z" fill="#FFBC57" fill-opacity="1.000000" fill-rule="nonzero"/>
			<path d="M68.35 25.6L68.35 32.8C68.35 33.52 67.87 34 67.14 34L14.85 34C14.12 34 13.64 33.52 13.64 32.8L13.64 25.6C13.64 24.88 14.12 24.4 14.85 24.4L67.14 24.4C67.87 24.4 68.35 24.88 68.35 25.6ZM14.85 22L29.06 22C29.79 22 30.27 21.52 30.27 20.8L30.27 5.2C30.27 4.48 29.79 4 29.06 4L14.85 4C14.12 4 13.64 4.48 13.64 5.2L13.64 20.8C13.64 21.52 14.12 22 14.85 22ZM33.89 22L48.1 22C48.83 22 49.31 21.52 49.31 20.8L49.31 5.2C49.31 4.48 48.83 4 48.1 4L33.89 4C33.16 4 32.68 4.48 32.68 5.2L32.68 20.8C32.68 21.52 33.16 22 33.89 22ZM67.14 4L52.93 4C52.2 4 51.72 4.48 51.72 5.2L51.72 20.8C51.72 21.52 52.2 22 52.93 22L67.14 22C67.87 22 68.35 21.52 68.35 20.8L68.35 5.2C68.35 4.48 67.87 4 67.14 4ZM67.14 36.4L14.85 36.4C14.12 36.4 13.64 36.88 13.64 37.59L13.64 44.8C13.64 45.52 14.12 46 14.85 46L21.83 46C22.55 46 23.03 45.52 23.03 44.8L23.03 43.6L58.96 43.6L58.96 44.8C58.96 45.52 59.44 46 60.16 46L67.14 46C67.87 46 68.35 45.52 68.35 44.8L68.35 37.59C68.35 36.88 67.87 36.4 67.14 36.4Z" fill="#FFBC57" fill-opacity="1.000000" fill-rule="nonzero"/>
		</g>
	</g>
</svg>
